<mxfile host="app.diagrams.net" modified="2023-07-29T12:23:32.098Z" agent="Mozilla/5.0 (Windows NT 10.0; Win64; x64) AppleWebKit/537.36 (KHTML, like Gecko) Chrome/115.0.0.0 Safari/537.36 Edg/115.0.1901.183" etag="iM4ZUjzjzn-i9yQwni1p" version="21.6.6" type="google">
  <diagram name="Page-1" id="CxLCOBnHjzHq9psb6Yh8">
    <mxGraphModel grid="0" page="0" gridSize="10" guides="1" tooltips="1" connect="1" arrows="1" fold="1" pageScale="1" pageWidth="850" pageHeight="1100" math="0" shadow="0">
      <root>
        <mxCell id="0" />
        <mxCell id="1" parent="0" />
        <mxCell id="VB7Ufas00Dgr7_cL7uJZ-1" value="Sender" style="shape=umlActor;verticalLabelPosition=bottom;verticalAlign=top;html=1;outlineConnect=0;" vertex="1" parent="1">
          <mxGeometry x="60" y="70" width="30" height="60" as="geometry" />
        </mxCell>
        <mxCell id="VB7Ufas00Dgr7_cL7uJZ-2" value="Sender" style="shape=umlActor;verticalLabelPosition=bottom;verticalAlign=top;html=1;outlineConnect=0;" vertex="1" parent="1">
          <mxGeometry x="60" y="280" width="30" height="60" as="geometry" />
        </mxCell>
        <mxCell id="VB7Ufas00Dgr7_cL7uJZ-3" value="Sender" style="shape=umlActor;verticalLabelPosition=bottom;verticalAlign=top;html=1;outlineConnect=0;" vertex="1" parent="1">
          <mxGeometry x="300" y="30" width="30" height="60" as="geometry" />
        </mxCell>
        <mxCell id="VB7Ufas00Dgr7_cL7uJZ-4" value="Receiver" style="shape=umlActor;verticalLabelPosition=bottom;verticalAlign=top;html=1;outlineConnect=0;" vertex="1" parent="1">
          <mxGeometry x="390" y="651" width="30" height="60" as="geometry" />
        </mxCell>
        <mxCell id="VB7Ufas00Dgr7_cL7uJZ-5" value="Receiver" style="shape=umlActor;verticalLabelPosition=bottom;verticalAlign=top;html=1;outlineConnect=0;" vertex="1" parent="1">
          <mxGeometry x="740" y="280" width="30" height="60" as="geometry" />
        </mxCell>
        <mxCell id="VB7Ufas00Dgr7_cL7uJZ-6" value="Receiver" style="shape=umlActor;verticalLabelPosition=bottom;verticalAlign=top;html=1;outlineConnect=0;" vertex="1" parent="1">
          <mxGeometry x="740" y="490" width="30" height="60" as="geometry" />
        </mxCell>
        <mxCell id="VB7Ufas00Dgr7_cL7uJZ-7" value="" style="whiteSpace=wrap;html=1;aspect=fixed;" vertex="1" parent="1">
          <mxGeometry x="190" y="130" width="469" height="469" as="geometry" />
        </mxCell>
        <mxCell id="VB7Ufas00Dgr7_cL7uJZ-14" value="API Gateway" style="rounded=0;whiteSpace=wrap;html=1;" vertex="1" parent="1">
          <mxGeometry x="250" y="170" width="280" height="30" as="geometry" />
        </mxCell>
        <mxCell id="VB7Ufas00Dgr7_cL7uJZ-17" value="LB" style="shape=cube;whiteSpace=wrap;html=1;boundedLbl=1;backgroundOutline=1;darkOpacity=0.05;darkOpacity2=0.1;" vertex="1" parent="1">
          <mxGeometry x="230" y="230" width="60" height="40" as="geometry" />
        </mxCell>
        <mxCell id="VB7Ufas00Dgr7_cL7uJZ-18" value="LB" style="shape=cube;whiteSpace=wrap;html=1;boundedLbl=1;backgroundOutline=1;darkOpacity=0.05;darkOpacity2=0.1;" vertex="1" parent="1">
          <mxGeometry x="320" y="230" width="60" height="40" as="geometry" />
        </mxCell>
        <mxCell id="VB7Ufas00Dgr7_cL7uJZ-20" value="LB" style="shape=cube;whiteSpace=wrap;html=1;boundedLbl=1;backgroundOutline=1;darkOpacity=0.05;darkOpacity2=0.1;" vertex="1" parent="1">
          <mxGeometry x="510" y="230" width="60" height="40" as="geometry" />
        </mxCell>
        <mxCell id="VB7Ufas00Dgr7_cL7uJZ-23" value="LB" style="shape=cube;whiteSpace=wrap;html=1;boundedLbl=1;backgroundOutline=1;darkOpacity=0.05;darkOpacity2=0.1;" vertex="1" parent="1">
          <mxGeometry x="242" y="490" width="60" height="40" as="geometry" />
        </mxCell>
        <mxCell id="VB7Ufas00Dgr7_cL7uJZ-24" value="LB" style="shape=cube;whiteSpace=wrap;html=1;boundedLbl=1;backgroundOutline=1;darkOpacity=0.05;darkOpacity2=0.1;" vertex="1" parent="1">
          <mxGeometry x="360" y="490" width="60" height="40" as="geometry" />
        </mxCell>
        <mxCell id="VB7Ufas00Dgr7_cL7uJZ-25" value="LB" style="shape=cube;whiteSpace=wrap;html=1;boundedLbl=1;backgroundOutline=1;darkOpacity=0.05;darkOpacity2=0.1;" vertex="1" parent="1">
          <mxGeometry x="457" y="494" width="60" height="40" as="geometry" />
        </mxCell>
        <mxCell id="VB7Ufas00Dgr7_cL7uJZ-26" value="LB" style="shape=cube;whiteSpace=wrap;html=1;boundedLbl=1;backgroundOutline=1;darkOpacity=0.05;darkOpacity2=0.1;" vertex="1" parent="1">
          <mxGeometry x="557" y="494" width="60" height="40" as="geometry" />
        </mxCell>
        <mxCell id="VB7Ufas00Dgr7_cL7uJZ-30" value="Storage" style="shape=cylinder3;whiteSpace=wrap;html=1;boundedLbl=1;backgroundOutline=1;size=15;" vertex="1" parent="1">
          <mxGeometry x="470" y="354" width="60" height="52" as="geometry" />
        </mxCell>
        <mxCell id="VB7Ufas00Dgr7_cL7uJZ-35" value="" style="curved=1;endArrow=classic;html=1;rounded=0;exitX=1;exitY=0.3333333333333333;exitDx=0;exitDy=0;exitPerimeter=0;entryX=0.051;entryY=0.127;entryDx=0;entryDy=0;entryPerimeter=0;" edge="1" parent="1" source="VB7Ufas00Dgr7_cL7uJZ-1" target="VB7Ufas00Dgr7_cL7uJZ-14">
          <mxGeometry width="50" height="50" relative="1" as="geometry">
            <mxPoint x="110" y="160" as="sourcePoint" />
            <mxPoint x="160" y="110" as="targetPoint" />
            <Array as="points">
              <mxPoint x="160" y="160" />
              <mxPoint x="170" y="90" />
              <mxPoint x="110" y="110" />
            </Array>
          </mxGeometry>
        </mxCell>
        <mxCell id="VB7Ufas00Dgr7_cL7uJZ-39" value="" style="curved=1;endArrow=classic;html=1;rounded=0;exitX=1;exitY=0.3333333333333333;exitDx=0;exitDy=0;exitPerimeter=0;entryX=0.146;entryY=0.146;entryDx=0;entryDy=0;entryPerimeter=0;" edge="1" parent="1" source="VB7Ufas00Dgr7_cL7uJZ-2" target="VB7Ufas00Dgr7_cL7uJZ-7">
          <mxGeometry width="50" height="50" relative="1" as="geometry">
            <mxPoint x="120" y="320" as="sourcePoint" />
            <mxPoint x="170" y="270" as="targetPoint" />
            <Array as="points">
              <mxPoint x="170" y="320" />
              <mxPoint x="120" y="270" />
            </Array>
          </mxGeometry>
        </mxCell>
        <mxCell id="VB7Ufas00Dgr7_cL7uJZ-40" value="" style="curved=1;endArrow=classic;html=1;rounded=0;exitX=1;exitY=0.3333333333333333;exitDx=0;exitDy=0;exitPerimeter=0;entryX=0.411;entryY=0;entryDx=0;entryDy=0;entryPerimeter=0;" edge="1" parent="1" source="VB7Ufas00Dgr7_cL7uJZ-3" target="VB7Ufas00Dgr7_cL7uJZ-14">
          <mxGeometry width="50" height="50" relative="1" as="geometry">
            <mxPoint x="365" y="100" as="sourcePoint" />
            <mxPoint x="415" y="50" as="targetPoint" />
            <Array as="points">
              <mxPoint x="415" y="100" />
              <mxPoint x="365" y="50" />
            </Array>
          </mxGeometry>
        </mxCell>
        <mxCell id="VB7Ufas00Dgr7_cL7uJZ-60" value="Msg" style="shape=callout;whiteSpace=wrap;html=1;perimeter=calloutPerimeter;" vertex="1" parent="1">
          <mxGeometry x="75" y="228" width="50" height="60" as="geometry" />
        </mxCell>
        <mxCell id="VB7Ufas00Dgr7_cL7uJZ-61" value="Msg" style="shape=callout;whiteSpace=wrap;html=1;perimeter=calloutPerimeter;" vertex="1" parent="1">
          <mxGeometry x="10" y="40" width="50" height="60" as="geometry" />
        </mxCell>
        <mxCell id="VB7Ufas00Dgr7_cL7uJZ-62" value="Msg" style="shape=callout;whiteSpace=wrap;html=1;perimeter=calloutPerimeter;" vertex="1" parent="1">
          <mxGeometry x="245" y="10" width="50" height="60" as="geometry" />
        </mxCell>
        <mxCell id="VB7Ufas00Dgr7_cL7uJZ-63" value="Msg" style="shape=callout;whiteSpace=wrap;html=1;perimeter=calloutPerimeter;" vertex="1" parent="1">
          <mxGeometry x="770" y="250" width="50" height="60" as="geometry" />
        </mxCell>
        <mxCell id="VB7Ufas00Dgr7_cL7uJZ-64" value="Msg" style="shape=callout;whiteSpace=wrap;html=1;perimeter=calloutPerimeter;" vertex="1" parent="1">
          <mxGeometry x="770" y="460" width="50" height="60" as="geometry" />
        </mxCell>
        <mxCell id="VB7Ufas00Dgr7_cL7uJZ-65" value="Msg" style="shape=callout;whiteSpace=wrap;html=1;perimeter=calloutPerimeter;" vertex="1" parent="1">
          <mxGeometry x="426" y="636" width="50" height="60" as="geometry" />
        </mxCell>
        <mxCell id="hc9nnFskXBQ2Hnd-4gEW-1" value="Storage" style="shape=cylinder3;whiteSpace=wrap;html=1;boundedLbl=1;backgroundOutline=1;size=15;" vertex="1" parent="1">
          <mxGeometry x="282" y="362" width="60" height="48" as="geometry" />
        </mxCell>
        <mxCell id="VB7Ufas00Dgr7_cL7uJZ-21" value="API Gateway" style="rounded=0;whiteSpace=wrap;html=1;" vertex="1" parent="1">
          <mxGeometry x="279" y="556" width="280" height="30" as="geometry" />
        </mxCell>
        <mxCell id="hc9nnFskXBQ2Hnd-4gEW-6" value="Storage" style="shape=cylinder3;whiteSpace=wrap;html=1;boundedLbl=1;backgroundOutline=1;size=15;" vertex="1" parent="1">
          <mxGeometry x="374" y="362" width="60" height="47" as="geometry" />
        </mxCell>
        <mxCell id="hc9nnFskXBQ2Hnd-4gEW-7" value="" style="endArrow=classic;startArrow=classic;html=1;rounded=0;entryX=0;entryY=0;entryDx=40;entryDy=40;entryPerimeter=0;" edge="1" parent="1" target="VB7Ufas00Dgr7_cL7uJZ-17">
          <mxGeometry width="50" height="50" relative="1" as="geometry">
            <mxPoint x="254" y="302" as="sourcePoint" />
            <mxPoint x="304" y="252" as="targetPoint" />
          </mxGeometry>
        </mxCell>
        <mxCell id="hc9nnFskXBQ2Hnd-4gEW-8" value="" style="endArrow=classic;startArrow=classic;html=1;rounded=0;entryX=0;entryY=0;entryDx=40;entryDy=40;entryPerimeter=0;exitX=0.5;exitY=0;exitDx=0;exitDy=0;exitPerimeter=0;" edge="1" parent="1" target="VB7Ufas00Dgr7_cL7uJZ-18">
          <mxGeometry width="50" height="50" relative="1" as="geometry">
            <mxPoint x="352" y="296" as="sourcePoint" />
            <mxPoint x="280" y="280" as="targetPoint" />
            <Array as="points">
              <mxPoint x="355" y="289" />
            </Array>
          </mxGeometry>
        </mxCell>
        <mxCell id="hc9nnFskXBQ2Hnd-4gEW-10" value="" style="endArrow=classic;startArrow=classic;html=1;rounded=0;entryX=0;entryY=0;entryDx=40;entryDy=40;entryPerimeter=0;exitX=0.5;exitY=0;exitDx=0;exitDy=0;exitPerimeter=0;" edge="1" parent="1" target="VB7Ufas00Dgr7_cL7uJZ-19">
          <mxGeometry width="50" height="50" relative="1" as="geometry">
            <mxPoint x="445.9999999999998" y="295" as="sourcePoint" />
            <mxPoint x="280" y="280" as="targetPoint" />
          </mxGeometry>
        </mxCell>
        <mxCell id="hc9nnFskXBQ2Hnd-4gEW-11" value="" style="endArrow=classic;startArrow=classic;html=1;rounded=0;entryX=0;entryY=0;entryDx=40;entryDy=40;entryPerimeter=0;exitX=0.5;exitY=0;exitDx=0;exitDy=0;exitPerimeter=0;" edge="1" parent="1" target="VB7Ufas00Dgr7_cL7uJZ-20">
          <mxGeometry width="50" height="50" relative="1" as="geometry">
            <mxPoint x="573" y="294" as="sourcePoint" />
            <mxPoint x="290" y="290" as="targetPoint" />
            <Array as="points" />
          </mxGeometry>
        </mxCell>
        <mxCell id="hc9nnFskXBQ2Hnd-4gEW-12" value="" style="endArrow=classic;startArrow=classic;html=1;rounded=0;entryX=0;entryY=0;entryDx=40;entryDy=40;entryPerimeter=0;" edge="1" parent="1">
          <mxGeometry width="50" height="50" relative="1" as="geometry">
            <mxPoint x="269" y="232" as="sourcePoint" />
            <mxPoint x="285" y="200" as="targetPoint" />
          </mxGeometry>
        </mxCell>
        <mxCell id="hc9nnFskXBQ2Hnd-4gEW-13" value="" style="endArrow=classic;startArrow=classic;html=1;rounded=0;entryX=0;entryY=0;entryDx=40;entryDy=40;entryPerimeter=0;" edge="1" parent="1">
          <mxGeometry width="50" height="50" relative="1" as="geometry">
            <mxPoint x="342" y="230" as="sourcePoint" />
            <mxPoint x="358" y="198" as="targetPoint" />
          </mxGeometry>
        </mxCell>
        <mxCell id="hc9nnFskXBQ2Hnd-4gEW-14" value="" style="endArrow=classic;startArrow=classic;html=1;rounded=0;entryX=0;entryY=0;entryDx=40;entryDy=40;entryPerimeter=0;" edge="1" parent="1">
          <mxGeometry width="50" height="50" relative="1" as="geometry">
            <mxPoint x="424" y="232" as="sourcePoint" />
            <mxPoint x="440" y="200" as="targetPoint" />
          </mxGeometry>
        </mxCell>
        <mxCell id="hc9nnFskXBQ2Hnd-4gEW-19" value="" style="endArrow=classic;startArrow=classic;html=1;rounded=0;entryX=0.959;entryY=1.133;entryDx=0;entryDy=0;entryPerimeter=0;" edge="1" parent="1" source="VB7Ufas00Dgr7_cL7uJZ-20" target="VB7Ufas00Dgr7_cL7uJZ-14">
          <mxGeometry width="50" height="50" relative="1" as="geometry">
            <mxPoint x="434" y="242" as="sourcePoint" />
            <mxPoint x="450" y="210" as="targetPoint" />
          </mxGeometry>
        </mxCell>
        <mxCell id="hc9nnFskXBQ2Hnd-4gEW-20" value="" style="endArrow=classic;startArrow=classic;html=1;rounded=0;entryX=0;entryY=0;entryDx=40;entryDy=40;entryPerimeter=0;" edge="1" parent="1" target="VB7Ufas00Dgr7_cL7uJZ-19">
          <mxGeometry width="50" height="50" relative="1" as="geometry">
            <mxPoint x="434" y="242" as="sourcePoint" />
            <mxPoint x="450" y="210" as="targetPoint" />
          </mxGeometry>
        </mxCell>
        <mxCell id="VB7Ufas00Dgr7_cL7uJZ-19" value="LB" style="shape=cube;whiteSpace=wrap;html=1;boundedLbl=1;backgroundOutline=1;darkOpacity=0.05;darkOpacity2=0.1;" vertex="1" parent="1">
          <mxGeometry x="402" y="228" width="60" height="40" as="geometry" />
        </mxCell>
        <mxCell id="hc9nnFskXBQ2Hnd-4gEW-23" value="" style="endArrow=classic;startArrow=classic;html=1;rounded=0;entryX=0;entryY=0;entryDx=40;entryDy=40;entryPerimeter=0;" edge="1" parent="1">
          <mxGeometry width="50" height="50" relative="1" as="geometry">
            <mxPoint x="279" y="560" as="sourcePoint" />
            <mxPoint x="295" y="528" as="targetPoint" />
          </mxGeometry>
        </mxCell>
        <mxCell id="hc9nnFskXBQ2Hnd-4gEW-24" value="" style="endArrow=classic;startArrow=classic;html=1;rounded=0;entryX=0;entryY=0;entryDx=40;entryDy=40;entryPerimeter=0;" edge="1" parent="1">
          <mxGeometry width="50" height="50" relative="1" as="geometry">
            <mxPoint x="386" y="562" as="sourcePoint" />
            <mxPoint x="402" y="530" as="targetPoint" />
          </mxGeometry>
        </mxCell>
        <mxCell id="hc9nnFskXBQ2Hnd-4gEW-25" value="" style="endArrow=classic;startArrow=classic;html=1;rounded=0;entryX=0;entryY=0;entryDx=40;entryDy=40;entryPerimeter=0;" edge="1" parent="1">
          <mxGeometry width="50" height="50" relative="1" as="geometry">
            <mxPoint x="483" y="562" as="sourcePoint" />
            <mxPoint x="499" y="530" as="targetPoint" />
          </mxGeometry>
        </mxCell>
        <mxCell id="hc9nnFskXBQ2Hnd-4gEW-26" value="" style="endArrow=classic;startArrow=classic;html=1;rounded=0;entryX=0;entryY=0;entryDx=40;entryDy=40;entryPerimeter=0;" edge="1" parent="1">
          <mxGeometry width="50" height="50" relative="1" as="geometry">
            <mxPoint x="554" y="556" as="sourcePoint" />
            <mxPoint x="570" y="524" as="targetPoint" />
          </mxGeometry>
        </mxCell>
        <mxCell id="hc9nnFskXBQ2Hnd-4gEW-33" value="" style="endArrow=classic;startArrow=classic;html=1;rounded=0;entryX=0;entryY=0;entryDx=40;entryDy=40;entryPerimeter=0;" edge="1" parent="1">
          <mxGeometry width="50" height="50" relative="1" as="geometry">
            <mxPoint x="242" y="501" as="sourcePoint" />
            <mxPoint x="258" y="469" as="targetPoint" />
          </mxGeometry>
        </mxCell>
        <mxCell id="hc9nnFskXBQ2Hnd-4gEW-34" value="" style="endArrow=classic;startArrow=classic;html=1;rounded=0;entryX=0.675;entryY=0.886;entryDx=0;entryDy=0;entryPerimeter=0;" edge="1" parent="1" source="VB7Ufas00Dgr7_cL7uJZ-24">
          <mxGeometry width="50" height="50" relative="1" as="geometry">
            <mxPoint x="252" y="511" as="sourcePoint" />
            <mxPoint x="373.4999999999998" y="469.3879999999999" as="targetPoint" />
          </mxGeometry>
        </mxCell>
        <mxCell id="hc9nnFskXBQ2Hnd-4gEW-37" value="" style="endArrow=classic;startArrow=classic;html=1;rounded=0;entryX=0.67;entryY=1.028;entryDx=0;entryDy=0;entryPerimeter=0;exitX=0;exitY=0;exitDx=20;exitDy=0;exitPerimeter=0;" edge="1" parent="1" source="VB7Ufas00Dgr7_cL7uJZ-25">
          <mxGeometry width="50" height="50" relative="1" as="geometry">
            <mxPoint x="456" y="305" as="sourcePoint" />
            <mxPoint x="474.2000000000003" y="479.7359999999999" as="targetPoint" />
          </mxGeometry>
        </mxCell>
        <mxCell id="hc9nnFskXBQ2Hnd-4gEW-38" value="" style="endArrow=classic;startArrow=classic;html=1;rounded=0;entryX=0.717;entryY=0.967;entryDx=0;entryDy=0;entryPerimeter=0;exitX=0;exitY=0;exitDx=20;exitDy=0;exitPerimeter=0;" edge="1" parent="1" source="VB7Ufas00Dgr7_cL7uJZ-26">
          <mxGeometry width="50" height="50" relative="1" as="geometry">
            <mxPoint x="466" y="315" as="sourcePoint" />
            <mxPoint x="573.02" y="476.02" as="targetPoint" />
          </mxGeometry>
        </mxCell>
        <mxCell id="hc9nnFskXBQ2Hnd-4gEW-39" value="" style="endArrow=classic;html=1;rounded=0;exitX=0.5;exitY=1;exitDx=0;exitDy=0;exitPerimeter=0;entryX=0.5;entryY=0;entryDx=0;entryDy=0;entryPerimeter=0;" edge="1" parent="1" target="hc9nnFskXBQ2Hnd-4gEW-1">
          <mxGeometry width="50" height="50" relative="1" as="geometry">
            <mxPoint x="260" y="355" as="sourcePoint" />
            <mxPoint x="433" y="413" as="targetPoint" />
          </mxGeometry>
        </mxCell>
        <mxCell id="hc9nnFskXBQ2Hnd-4gEW-40" value="" style="endArrow=classic;html=1;rounded=0;exitX=0.654;exitY=1.075;exitDx=0;exitDy=0;exitPerimeter=0;entryX=0;entryY=1;entryDx=0;entryDy=-15;entryPerimeter=0;" edge="1" parent="1" target="hc9nnFskXBQ2Hnd-4gEW-6">
          <mxGeometry width="50" height="50" relative="1" as="geometry">
            <mxPoint x="361.24" y="358.3499999999999" as="sourcePoint" />
            <mxPoint x="292" y="387" as="targetPoint" />
          </mxGeometry>
        </mxCell>
        <mxCell id="hc9nnFskXBQ2Hnd-4gEW-41" value="" style="endArrow=classic;html=1;rounded=0;exitX=0.5;exitY=1;exitDx=0;exitDy=0;exitPerimeter=0;entryX=0;entryY=1;entryDx=0;entryDy=-15;entryPerimeter=0;" edge="1" parent="1" target="VB7Ufas00Dgr7_cL7uJZ-30">
          <mxGeometry width="50" height="50" relative="1" as="geometry">
            <mxPoint x="445.9999999999998" y="357" as="sourcePoint" />
            <mxPoint x="302" y="397" as="targetPoint" />
          </mxGeometry>
        </mxCell>
        <mxCell id="hc9nnFskXBQ2Hnd-4gEW-44" value="" style="endArrow=classic;html=1;rounded=0;exitX=0.5;exitY=1;exitDx=0;exitDy=0;exitPerimeter=0;entryX=1;entryY=0.5;entryDx=0;entryDy=0;entryPerimeter=0;" edge="1" parent="1" target="VB7Ufas00Dgr7_cL7uJZ-30">
          <mxGeometry width="50" height="50" relative="1" as="geometry">
            <mxPoint x="573" y="354" as="sourcePoint" />
            <mxPoint x="312" y="407" as="targetPoint" />
          </mxGeometry>
        </mxCell>
        <mxCell id="hc9nnFskXBQ2Hnd-4gEW-45" value="" style="endArrow=classic;html=1;rounded=0;exitX=0.309;exitY=0.355;exitDx=0;exitDy=0;exitPerimeter=0;entryX=0.855;entryY=1;entryDx=0;entryDy=-4.35;entryPerimeter=0;" edge="1" parent="1" target="VB7Ufas00Dgr7_cL7uJZ-30">
          <mxGeometry width="50" height="50" relative="1" as="geometry">
            <mxPoint x="548.5400000000004" y="439.29999999999995" as="sourcePoint" />
            <mxPoint x="540" y="390" as="targetPoint" />
          </mxGeometry>
        </mxCell>
        <mxCell id="hc9nnFskXBQ2Hnd-4gEW-46" value="" style="endArrow=classic;html=1;rounded=0;entryX=0.855;entryY=1;entryDx=0;entryDy=-4.35;entryPerimeter=0;" edge="1" parent="1" target="hc9nnFskXBQ2Hnd-4gEW-6">
          <mxGeometry width="50" height="50" relative="1" as="geometry">
            <mxPoint x="446" y="422" as="sourcePoint" />
            <mxPoint x="531" y="412" as="targetPoint" />
          </mxGeometry>
        </mxCell>
        <mxCell id="hc9nnFskXBQ2Hnd-4gEW-47" value="" style="endArrow=classic;html=1;rounded=0;exitX=0.513;exitY=0.315;exitDx=0;exitDy=0;exitPerimeter=0;entryX=0.321;entryY=1.007;entryDx=0;entryDy=0;entryPerimeter=0;" edge="1" parent="1" target="VB7Ufas00Dgr7_cL7uJZ-30">
          <mxGeometry width="50" height="50" relative="1" as="geometry">
            <mxPoint x="464.7800000000002" y="435.53" as="sourcePoint" />
            <mxPoint x="541" y="422" as="targetPoint" />
          </mxGeometry>
        </mxCell>
        <mxCell id="hc9nnFskXBQ2Hnd-4gEW-48" value="" style="endArrow=classic;html=1;rounded=0;exitX=0.424;exitY=0.448;exitDx=0;exitDy=0;exitPerimeter=0;entryX=0.725;entryY=0.846;entryDx=0;entryDy=0;entryPerimeter=0;" edge="1" parent="1" target="hc9nnFskXBQ2Hnd-4gEW-1">
          <mxGeometry width="50" height="50" relative="1" as="geometry">
            <mxPoint x="358.44000000000005" y="443.9839999999999" as="sourcePoint" />
            <mxPoint x="551" y="432" as="targetPoint" />
          </mxGeometry>
        </mxCell>
        <mxCell id="hc9nnFskXBQ2Hnd-4gEW-49" value="" style="endArrow=classic;html=1;rounded=0;exitX=0.728;exitY=0.333;exitDx=0;exitDy=0;exitPerimeter=0;entryX=0.301;entryY=1.002;entryDx=0;entryDy=0;entryPerimeter=0;" edge="1" parent="1" target="hc9nnFskXBQ2Hnd-4gEW-1">
          <mxGeometry width="50" height="50" relative="1" as="geometry">
            <mxPoint x="257.68000000000006" y="439.3140000000001" as="sourcePoint" />
            <mxPoint x="561" y="442" as="targetPoint" />
          </mxGeometry>
        </mxCell>
        <mxCell id="hc9nnFskXBQ2Hnd-4gEW-51" value="" style="endArrow=classic;html=1;rounded=0;exitX=0.452;exitY=0.973;exitDx=0;exitDy=0;exitPerimeter=0;" edge="1" parent="1" source="VB7Ufas00Dgr7_cL7uJZ-21">
          <mxGeometry width="50" height="50" relative="1" as="geometry">
            <mxPoint x="383" y="463" as="sourcePoint" />
            <mxPoint x="423" y="648" as="targetPoint" />
          </mxGeometry>
        </mxCell>
        <mxCell id="hc9nnFskXBQ2Hnd-4gEW-52" value="" style="curved=1;endArrow=classic;html=1;rounded=0;exitX=1;exitY=0.5;exitDx=0;exitDy=0;entryX=0.5;entryY=0;entryDx=0;entryDy=0;entryPerimeter=0;" edge="1" parent="1" source="VB7Ufas00Dgr7_cL7uJZ-21" target="VB7Ufas00Dgr7_cL7uJZ-6">
          <mxGeometry width="50" height="50" relative="1" as="geometry">
            <mxPoint x="681" y="503" as="sourcePoint" />
            <mxPoint x="731" y="453" as="targetPoint" />
            <Array as="points">
              <mxPoint x="731" y="503" />
              <mxPoint x="711" y="666" />
              <mxPoint x="681" y="453" />
            </Array>
          </mxGeometry>
        </mxCell>
        <mxCell id="hc9nnFskXBQ2Hnd-4gEW-54" value="" style="curved=1;endArrow=classic;html=1;rounded=0;" edge="1" parent="1">
          <mxGeometry width="50" height="50" relative="1" as="geometry">
            <mxPoint x="562" y="565" as="sourcePoint" />
            <mxPoint x="746" y="317" as="targetPoint" />
            <Array as="points">
              <mxPoint x="699" y="509" />
              <mxPoint x="746" y="367" />
              <mxPoint x="696" y="317" />
            </Array>
          </mxGeometry>
        </mxCell>
        <mxCell id="hc9nnFskXBQ2Hnd-4gEW-55" value="App Server" style="shape=process;whiteSpace=wrap;html=1;backgroundOutline=1;" vertex="1" parent="1">
          <mxGeometry x="230.5" y="297" width="59" height="54" as="geometry" />
        </mxCell>
        <mxCell id="hc9nnFskXBQ2Hnd-4gEW-56" value="App Server" style="shape=process;whiteSpace=wrap;html=1;backgroundOutline=1;" vertex="1" parent="1">
          <mxGeometry x="331" y="300" width="59" height="54" as="geometry" />
        </mxCell>
        <mxCell id="hc9nnFskXBQ2Hnd-4gEW-57" value="App Server" style="shape=process;whiteSpace=wrap;html=1;backgroundOutline=1;" vertex="1" parent="1">
          <mxGeometry x="421.5" y="300" width="59" height="54" as="geometry" />
        </mxCell>
        <mxCell id="hc9nnFskXBQ2Hnd-4gEW-59" value="App Server" style="shape=process;whiteSpace=wrap;html=1;backgroundOutline=1;" vertex="1" parent="1">
          <mxGeometry x="530" y="294" width="59" height="54" as="geometry" />
        </mxCell>
        <mxCell id="hc9nnFskXBQ2Hnd-4gEW-64" value="App Server" style="shape=process;whiteSpace=wrap;html=1;backgroundOutline=1;" vertex="1" parent="1">
          <mxGeometry x="228" y="428" width="59" height="54" as="geometry" />
        </mxCell>
        <mxCell id="hc9nnFskXBQ2Hnd-4gEW-66" value="App&lt;br&gt;Server" style="shape=process;whiteSpace=wrap;html=1;backgroundOutline=1;" vertex="1" parent="1">
          <mxGeometry x="337" y="422" width="59" height="54" as="geometry" />
        </mxCell>
        <mxCell id="hc9nnFskXBQ2Hnd-4gEW-67" value="App Server" style="shape=process;whiteSpace=wrap;html=1;backgroundOutline=1;" vertex="1" parent="1">
          <mxGeometry x="429" y="424" width="59" height="54" as="geometry" />
        </mxCell>
        <mxCell id="hc9nnFskXBQ2Hnd-4gEW-68" value="App Server" style="shape=process;whiteSpace=wrap;html=1;backgroundOutline=1;" vertex="1" parent="1">
          <mxGeometry x="530" y="428" width="59" height="54" as="geometry" />
        </mxCell>
      </root>
    </mxGraphModel>
  </diagram>
</mxfile>
